<svg xmlns="http://www.w3.org/2000/svg" viewBox="0 0 680 219.14"><defs><style>.cls-1{fill:#2a2d34;}.cls-2{fill:#33cc6b;}</style></defs><g id="Capa_2" data-name="Capa 2"><g id="Logo"><path class="cls-1" d="M25.7,181.29a4.76,4.76,0,0,1-4.78-4.79V98.81H4.78a4.61,4.61,0,0,1-3.39-1.39A5.32,5.32,0,0,1,0,93.83V82.48a4.61,4.61,0,0,1,1.39-3.39,4.62,4.62,0,0,1,3.39-1.4H20.92V69.53q0-35.67,39-35.66H73.51a4.75,4.75,0,0,1,4.78,4.78V50a4.86,4.86,0,0,1-1.39,3.59A4.61,4.61,0,0,1,73.51,55H60.76q-7.77,0-11,3.79-3,3.78-3,11.75v7.17h24.7a4.78,4.78,0,0,1,4.78,4.79V93.83a4.87,4.87,0,0,1-1.4,3.59,4.57,4.57,0,0,1-3.38,1.39H46.82V176.5A4.78,4.78,0,0,1,42,181.29Z"></path><path class="cls-1" d="M97.23,181.29a4.76,4.76,0,0,1-4.78-4.79V44.62a4.19,4.19,0,0,1,1.39-3.38,4.62,4.62,0,0,1,3.39-1.4h16.53a4.78,4.78,0,0,1,4.79,4.78V176.5a4.62,4.62,0,0,1-1.4,3.39,4.22,4.22,0,0,1-3.39,1.4Z"></path><path class="cls-1" d="M163.7,219.14a4.1,4.1,0,0,1-4-4,6.38,6.38,0,0,1,.8-3.19l15.54-36.85L137.8,84.87a7.63,7.63,0,0,1-.8-2.79,4.88,4.88,0,0,1,1.4-3,3.77,3.77,0,0,1,3-1.4h16.13a5.52,5.52,0,0,1,5.38,3.79l26.5,65.14,27.29-65.14a5.51,5.51,0,0,1,5.38-3.79H238a3.79,3.79,0,0,1,2.78,1.2,3.6,3.6,0,0,1,1.4,2.79,8.06,8.06,0,0,1-.8,3.19L185,215.35a5.85,5.85,0,0,1-5.57,3.79Z"></path><path class="cls-1" d="M264.15,181.29a4.76,4.76,0,0,1-4.78-4.79v-94a4.76,4.76,0,0,1,4.78-4.79h16.33a4.76,4.76,0,0,1,4.78,4.79v8.16Q297,75.7,318.53,75.7q18.33,0,29.09,12.15,10.75,12,10.76,32.68v56a4.62,4.62,0,0,1-1.4,3.39,4.23,4.23,0,0,1-3.39,1.4H336.06a4.78,4.78,0,0,1-4.78-4.79V121.72q0-11.76-5.78-18.13Q319.94,97,309.17,97q-10.56,0-16.74,6.57-6,6.57-6,18.13V176.5a4.62,4.62,0,0,1-1.4,3.39,4.2,4.2,0,0,1-3.38,1.4Z"></path><path class="cls-1" d="M428.5,183.28q-21.92,0-35.06-12.15Q380.5,159,379.7,137.46l-.2-8,.2-8q.8-21.51,13.74-33.67Q406.6,75.7,428.5,75.7q15.54,0,26.3,5.58Q465.75,86.86,470.94,95q5.37,8,5.77,15.14a3.77,3.77,0,0,1-1.39,3.38,4.62,4.62,0,0,1-3.39,1.4H454.4a5.69,5.69,0,0,1-3.19-.8,11,11,0,0,1-2-3.19q-3-7.77-8-11.15-4.77-3.39-12.35-3.39-10.15,0-15.94,6.57-5.77,6.38-6.17,19.53l-.2,7.37.2,6.57q.79,26.1,22.11,26.1,7.77,0,12.55-3.39T449.22,148a8.23,8.23,0,0,1,2-3,4.8,4.8,0,0,1,3.19-1h17.53a4.62,4.62,0,0,1,3.39,1.4,3.77,3.77,0,0,1,1.39,3.38q-.39,7-5.58,14.94T455.2,177.5Q444.44,183.27,428.5,183.28Z"></path><path class="cls-1" d="M542.11,183.28q-22.11,0-35.26-12.75-12.94-12.94-13.74-36.26l-.2-5,.2-5q1-22.71,13.94-35.66,13.16-12.95,35.06-13,23.5,0,36.26,14.35,12.95,14.34,13,38.24v4.19a4.58,4.58,0,0,1-1.4,3.38,4.85,4.85,0,0,1-3.58,1.4H520.2v1.59q.39,11,6,18.53,5.77,7.37,15.73,7.37a22.86,22.86,0,0,0,18.93-9.16,13.06,13.06,0,0,1,2.79-2.79,7.71,7.71,0,0,1,3.39-.6h17.13a4.06,4.06,0,0,1,3,1.2,3.05,3.05,0,0,1,1.39,2.59q0,4.77-5.78,11.35-5.58,6.38-16.13,11.16T542.11,183.28Zm22.12-62.75v-.6q0-11.76-6-18.93-5.78-7.17-16.14-7.17T526,101q-5.79,7.17-5.78,18.93v.6Z"></path><path class="cls-1" d="M617.25,181.29a4.76,4.76,0,0,1-4.78-4.79V82.67a4.6,4.6,0,0,1,1.39-3.38,4.36,4.36,0,0,1,3.39-1.6h16.13a4.78,4.78,0,0,1,5,5v8.17a31.66,31.66,0,0,1,12-9.76,39.59,39.59,0,0,1,16.73-3.39h8.17A4.76,4.76,0,0,1,680,82.48V96.82a4.65,4.65,0,0,1-1.39,3.39,4.26,4.26,0,0,1-3.39,1.39H659.68q-9.36,0-14.74,5.38t-5.38,14.74V176.5a4.62,4.62,0,0,1-1.4,3.39,4.85,4.85,0,0,1-3.58,1.4Z"></path><path class="cls-2" d="M241.89,58.29a3.83,3.83,0,0,1-.9,2.6,4.11,4.11,0,0,1-2.68.87H224.74a5.17,5.17,0,0,1-3.4-1,14.93,14.93,0,0,1-3-3.3L189.18,24.1,160.06,57.42a17.92,17.92,0,0,1-2.86,3.3,6.24,6.24,0,0,1-3.75,1h-13.4a3.36,3.36,0,0,1-2.68-1,3.32,3.32,0,0,1-1.07-2.43,7,7,0,0,1,1.61-3.64L179,5a13.19,13.19,0,0,1,3.75-3.82A7.44,7.44,0,0,1,187,0h4.29a7.43,7.43,0,0,1,4.28,1.21A14.59,14.59,0,0,1,199.19,5l41.27,49.62A6.75,6.75,0,0,1,241.89,58.29Z"></path></g></g></svg>